<?xml version="1.0" encoding="UTF-8" standalone="no"?>
<!DOCTYPE svg PUBLIC "-//W3C//DTD SVG 1.1//EN" "http://www.w3.org/Graphics/SVG/1.1/DTD/svg11.dtd">
<svg xmlns="http://www.w3.org/2000/svg" version="1.1" viewBox="0 0 206 244" width="206.0pt" height="244.0pt" xmlns:xlink="http://www.w3.org/1999/xlink">
<defs>
<path d="M 0.00 0.00 L 3.97 0.00 C 2.91 0.65 1.89 1.23 1.06 2.19 C 0.57 5.40 0.86 8.76 0.80 12.00 C 0.81 85.00 0.81 158.00 0.80 231.00 C 0.84 233.94 0.60 236.97 1.00 239.89 C 1.53 241.86 4.17 243.10 5.85 244.00 L 0.00 244.00 L 0.00 0.00 Z" id="p0" />
<path d="M 3.97 0.00 L 201.90 0.00 L 202.70 0.32 L 203.39 0.63 C 205.01 2.02 205.17 2.83 205.19 4.94 C 205.21 75.28 205.17 145.67 205.21 216.01 C 205.26 221.13 204.27 226.31 201.91 230.88 C 199.43 235.66 195.23 239.35 190.25 241.35 C 186.34 243.03 182.36 243.44 178.19 244.00 L 5.85 244.00 C 4.17 243.10 1.53 241.86 1.00 239.89 C 0.60 236.97 0.84 233.94 0.80 231.00 C 0.81 158.00 0.81 85.00 0.80 12.00 C 0.86 8.76 0.57 5.40 1.06 2.19 C 1.89 1.23 2.91 0.65 3.97 0.00 Z M 8.50 7.97 C 8.53 83.99 8.53 160.01 8.50 236.03 C 64.67 236.06 120.84 236.03 177.00 236.04 C 182.21 236.11 187.43 234.91 191.56 231.63 C 196.05 227.78 197.41 221.71 197.49 216.03 C 197.49 146.70 197.47 77.30 197.50 7.97 C 134.50 7.95 71.50 7.95 8.50 7.97 Z" id="p1" />
<path d="M 201.90 0.00 L 206.00 0.00 L 206.00 244.00 L 178.19 244.00 C 182.36 243.44 186.34 243.03 190.25 241.35 C 195.23 239.35 199.43 235.66 201.91 230.88 C 204.27 226.31 205.26 221.13 205.21 216.01 C 205.17 145.67 205.21 75.28 205.19 4.94 C 205.17 2.83 205.01 2.02 203.39 0.63 L 202.70 0.32 L 201.90 0.00 Z" id="p2" />
<path d="M 8.50 7.97 C 71.50 7.95 134.50 7.95 197.50 7.97 C 197.47 77.30 197.49 146.70 197.49 216.03 C 197.41 221.71 196.05 227.78 191.56 231.63 C 187.43 234.91 182.21 236.11 177.00 236.04 C 120.84 236.03 64.67 236.06 8.50 236.03 C 8.53 160.01 8.53 83.99 8.50 7.97 Z M 97.92 19.87 C 97.94 20.95 97.97 22.02 98.00 23.10 C 93.53 24.78 89.50 26.65 86.76 30.77 C 83.41 35.43 84.76 42.68 84.65 48.16 C 82.52 50.02 81.23 51.45 82.27 54.41 C 84.70 60.03 88.70 65.10 91.95 70.28 C 91.40 72.79 90.27 76.70 87.57 77.62 C 81.46 80.37 74.41 80.92 68.28 83.15 C 62.08 85.26 58.51 92.80 58.71 98.98 C 58.71 101.42 60.80 102.90 63.07 102.98 C 68.50 103.15 73.94 102.96 79.38 103.02 C 78.41 96.10 77.42 89.17 76.40 82.25 C 81.02 81.52 85.03 80.31 89.24 78.28 C 91.42 83.00 94.97 86.60 100.23 87.55 C 107.57 88.89 114.42 85.27 116.62 77.99 C 120.77 80.13 125.15 81.17 129.71 82.01 C 128.97 89.00 128.36 96.02 127.74 103.02 C 132.84 102.96 137.94 103.15 143.03 102.97 C 145.80 102.84 147.56 100.87 147.33 98.06 C 147.04 92.77 144.24 86.15 139.15 83.80 C 132.54 80.77 124.35 80.65 117.71 77.29 C 115.68 76.13 114.31 73.66 112.90 71.83 C 116.83 67.32 119.82 61.88 122.84 56.73 C 124.45 53.65 125.18 50.79 122.08 48.35 C 121.95 41.79 123.58 35.39 119.27 29.76 C 114.08 23.70 105.86 20.08 97.92 19.87 Z M 30.87 127.09 C 32.55 127.62 34.17 128.09 35.95 128.04 C 54.65 128.01 73.36 128.01 92.06 128.04 C 93.85 128.10 95.46 127.59 97.13 127.04 C 97.35 125.30 98.08 123.78 97.11 122.13 C 96.24 120.54 94.70 120.28 93.05 120.27 C 74.04 120.25 54.95 120.30 35.95 120.24 C 34.17 120.32 31.98 120.12 30.92 121.88 C 29.72 123.64 30.58 125.21 30.87 127.09 Z M 105.93 127.11 C 107.58 127.61 109.19 128.08 110.94 128.04 C 132.28 128.04 153.62 127.95 174.95 128.09 C 176.13 126.78 177.47 126.05 177.42 124.07 C 177.37 121.62 175.38 120.16 173.04 120.28 C 152.39 120.23 131.61 120.31 110.95 120.24 C 109.21 120.31 106.97 120.15 105.95 121.90 C 104.74 123.72 105.57 125.19 105.93 127.11 Z M 43.00 157.00 C 86.02 157.00 129.05 156.99 172.07 157.01 C 174.41 157.09 176.61 156.51 177.30 154.00 C 177.93 151.25 175.84 148.96 173.06 149.14 C 127.84 149.08 82.18 149.16 36.95 149.10 C 34.87 149.22 33.01 148.83 31.60 150.72 C 29.82 153.11 31.19 156.34 34.12 156.88 C 37.06 157.16 40.05 156.97 43.00 157.00 Z M 30.97 179.05 C 30.50 180.87 29.71 182.35 30.88 184.11 C 32.02 185.91 34.04 185.86 35.93 185.92 C 78.91 185.88 122.00 185.91 165.00 185.90 C 168.24 185.85 171.56 186.13 174.77 185.71 C 176.83 185.29 177.16 183.69 178.13 182.11 C 177.71 181.06 177.30 180.00 176.89 178.95 C 175.30 178.38 173.78 177.88 172.06 177.94 C 128.40 177.97 84.67 177.96 41.00 177.95 C 37.42 178.07 34.23 177.38 30.97 179.05 Z M 166.00 206.91 C 157.36 206.99 148.69 206.77 140.05 206.98 C 136.98 207.25 135.55 211.23 137.64 213.43 C 139.03 214.96 141.08 214.64 142.95 214.75 C 152.97 214.67 163.01 214.78 173.03 214.70 C 174.96 214.71 176.77 213.96 177.28 211.93 C 177.96 209.68 176.38 207.13 173.98 206.98 C 171.33 206.80 168.66 206.92 166.00 206.91 Z" id="p3" />
<path d="M 97.92 19.87 C 105.86 20.08 114.08 23.70 119.27 29.76 C 123.58 35.39 121.95 41.79 122.08 48.35 C 125.18 50.79 124.45 53.65 122.84 56.73 C 119.82 61.88 116.83 67.32 112.90 71.83 C 114.31 73.66 115.68 76.13 117.71 77.29 C 124.35 80.65 132.54 80.77 139.15 83.80 C 144.24 86.15 147.04 92.77 147.33 98.06 C 147.56 100.87 145.80 102.84 143.03 102.97 C 137.94 103.15 132.84 102.96 127.74 103.02 C 128.36 96.02 128.97 89.00 129.71 82.01 C 125.15 81.17 120.77 80.13 116.62 77.99 C 114.42 85.27 107.57 88.89 100.23 87.55 C 94.97 86.60 91.42 83.00 89.24 78.28 C 85.03 80.31 81.02 81.52 76.40 82.25 C 77.42 89.17 78.41 96.10 79.38 103.02 C 73.94 102.96 68.50 103.15 63.07 102.98 C 60.80 102.90 58.71 101.42 58.71 98.98 C 58.51 92.80 62.08 85.26 68.28 83.15 C 74.41 80.92 81.46 80.37 87.57 77.62 C 90.27 76.70 91.40 72.79 91.95 70.28 C 88.70 65.10 84.70 60.03 82.27 54.41 C 81.23 51.45 82.52 50.02 84.65 48.16 C 84.76 42.68 83.41 35.43 86.76 30.77 C 89.50 26.65 93.53 24.78 98.00 23.10 C 97.97 22.02 97.94 20.95 97.92 19.87 Z M 87.22 42.20 C 87.55 44.75 87.89 47.30 88.18 49.85 C 86.65 50.27 85.17 50.76 83.70 51.35 C 84.71 56.32 87.67 59.64 90.19 63.90 C 92.20 66.98 94.42 70.55 97.76 72.32 C 101.79 74.67 107.32 73.95 110.69 70.75 C 114.33 67.51 116.74 62.50 119.39 58.40 C 120.96 56.01 121.88 53.91 122.24 51.04 C 120.77 50.98 119.30 50.95 117.82 50.93 C 118.35 48.65 118.86 46.37 119.37 44.10 C 113.19 44.65 107.63 42.92 101.74 41.46 C 96.54 40.26 92.25 40.44 87.22 42.20 Z M 90.71 77.91 C 92.95 81.45 95.86 84.18 100.04 85.14 C 106.36 86.59 112.38 83.48 115.38 77.84 C 114.11 76.25 112.86 74.64 111.63 73.01 C 108.31 74.97 105.05 76.48 101.08 75.68 C 98.03 75.31 95.97 73.58 93.46 72.03 C 92.48 73.96 91.65 75.96 90.71 77.91 Z" id="p4" />
<path d="M 101.74 41.46 C 107.63 42.92 113.19 44.65 119.37 44.10 C 118.86 46.37 118.35 48.65 117.82 50.93 C 119.30 50.95 120.77 50.98 122.24 51.04 C 121.88 53.91 120.96 56.01 119.39 58.40 C 116.74 62.50 114.33 67.51 110.69 70.75 C 107.32 73.95 101.79 74.67 97.76 72.32 C 94.42 70.55 92.20 66.98 90.19 63.90 C 87.67 59.64 84.71 56.32 83.70 51.35 C 85.17 50.76 86.65 50.27 88.18 49.85 C 87.89 47.30 87.55 44.75 87.22 42.20 C 92.25 40.44 96.54 40.26 101.74 41.46 Z" id="p5" />
<path d="M 93.46 72.03 C 95.97 73.58 98.03 75.31 101.08 75.68 C 105.05 76.48 108.31 74.97 111.63 73.01 C 112.86 74.64 114.11 76.25 115.38 77.84 C 112.38 83.48 106.36 86.59 100.04 85.14 C 95.86 84.18 92.95 81.45 90.71 77.91 C 91.65 75.96 92.48 73.96 93.46 72.03 Z" id="p6" />
<path d="M 35.95 120.24 C 54.95 120.30 74.04 120.25 93.05 120.27 C 94.70 120.28 96.24 120.54 97.11 122.13 C 98.08 123.78 97.35 125.30 97.13 127.04 C 95.46 127.59 93.85 128.10 92.06 128.04 C 73.36 128.01 54.65 128.01 35.95 128.04 C 34.17 128.09 32.55 127.62 30.87 127.09 C 30.58 125.21 29.72 123.64 30.92 121.88 C 31.98 120.12 34.17 120.32 35.95 120.24 Z" id="p7" />
<path d="M 110.95 120.24 C 131.61 120.31 152.39 120.23 173.04 120.28 C 175.38 120.16 177.37 121.62 177.42 124.07 C 177.47 126.05 176.13 126.78 174.95 128.09 C 153.62 127.95 132.28 128.04 110.94 128.04 C 109.19 128.08 107.58 127.61 105.93 127.11 C 105.57 125.19 104.74 123.72 105.95 121.90 C 106.97 120.15 109.21 120.31 110.95 120.24 Z" id="p8" />
<path d="M 36.95 149.10 C 82.18 149.16 127.84 149.08 173.06 149.14 C 175.84 148.96 177.93 151.25 177.30 154.00 C 176.61 156.51 174.41 157.09 172.07 157.01 C 129.05 156.99 86.02 157.00 43.00 157.00 C 40.05 156.97 37.06 157.16 34.12 156.88 C 31.19 156.34 29.82 153.11 31.60 150.72 C 33.01 148.83 34.87 149.22 36.95 149.10 Z" id="p9" />
<path d="M 41.00 177.95 C 84.67 177.96 128.40 177.97 172.06 177.94 C 173.78 177.88 175.30 178.38 176.89 178.95 C 177.30 180.00 177.71 181.06 178.13 182.11 C 177.16 183.69 176.83 185.29 174.77 185.71 C 171.56 186.13 168.24 185.85 165.00 185.90 C 122.00 185.91 78.91 185.88 35.93 185.92 C 34.04 185.86 32.02 185.91 30.88 184.11 C 29.71 182.35 30.50 180.87 30.97 179.05 C 34.23 177.38 37.42 178.07 41.00 177.95 Z" id="p10" />
<path d="M 140.05 206.98 C 148.69 206.77 157.36 206.99 166.00 206.91 C 168.66 206.92 171.33 206.80 173.98 206.98 C 176.38 207.13 177.96 209.68 177.28 211.93 C 176.77 213.96 174.96 214.71 173.03 214.70 C 163.01 214.78 152.97 214.67 142.95 214.75 C 141.08 214.64 139.03 214.96 137.64 213.43 C 135.55 211.23 136.98 207.25 140.05 206.98 Z" id="p11" />
</defs>
<g stroke-width="10pt">
<use stroke="#ffffff" xlink:href="#p0" />
<use stroke="#000000" xlink:href="#p1" />
<use stroke="#ffffff" xlink:href="#p2" />
<use stroke="#ffffff" xlink:href="#p3" />
<use stroke="#000000" xlink:href="#p4" />
<use stroke="#ffffff" xlink:href="#p5" />
<use stroke="#ffffff" xlink:href="#p6" />
<use stroke="#000000" xlink:href="#p7" />
<use stroke="#000000" xlink:href="#p8" />
<use stroke="#000000" xlink:href="#p9" />
<use stroke="#000000" xlink:href="#p10" />
<use stroke="#000000" xlink:href="#p11" />
</g>
<g>
<use fill="#ffffff" xlink:href="#p0" />
<use fill="#000000" xlink:href="#p1" />
<use fill="#ffffff" xlink:href="#p2" />
<use fill="#ffffff" xlink:href="#p3" />
<use fill="#000000" xlink:href="#p4" />
<use fill="#ffffff" xlink:href="#p5" />
<use fill="#ffffff" xlink:href="#p6" />
<use fill="#000000" xlink:href="#p7" />
<use fill="#000000" xlink:href="#p8" />
<use fill="#000000" xlink:href="#p9" />
<use fill="#000000" xlink:href="#p10" />
<use fill="#000000" xlink:href="#p11" />
</g>
</svg>